<?xml version="1.0" encoding="UTF-8"?>
<!-- Central SVG sprite sheet: add additional <symbol> blocks here as new icons are needed. -->
<svg xmlns="http://www.w3.org/2000/svg" style="display:none">
  <!-- Options / settings gear-like decorative icon -->
  <symbol id="icon-options" viewBox="0 0 24 24" fill="none" stroke="currentColor" stroke-width="2" stroke-linecap="round" stroke-linejoin="round">
    <circle cx="12" cy="12" r="3" />
    <path d="M19.4 15a1.65 1.65 0 0 0 .33 1.82l.06.06a2 2 0 0 1 0 2.83 2 2 0 0 1-2.83 0l-.06-.06a1.65 1.65 0 0 0-1.82-.33 1.65 1.65 0 0 0-1 1.51V21a2 2 0 0 1-2 2 2 2 0 0 1-2-2v-.09A1.65 1.65 0 0 0 9 19.4a1.65 1.65 0 0 0-1.82.33l-.06.06a2 2 0 0 1-2.83 0 2 2 0 0 1 0-2.83l.06-.06a1.65 1.65 0 0 0 .33-1.82 1.65 1.65 0 0 0-1.51-1H3a2 2 0 0 1-2-2 2 2 0 0 1 2-2h.09A1.65 1.65 0 0 0 4.6 9a1.65 1.65 0 0 0-.33-1.82l-.06-.06a2 2 0 0 1 0-2.83 2 2 0 0 1 2.83 0l.06.06a1.65 1.65 0 0 0 1.82.33H9a1.65 1.65 0 0 0 1 1.51V6a2 2 0 0 1 2-2 2 2 0 0 1 2 2v.09a1.65 1.65 0 0 0 1 1.51 1.65 1.65 0 0 0 1.82-.33l.06-.06a2 2 0 0 1 2.83 0 2 2 0 0 1 0 2.83l-.06.06a1.65 1.65 0 0 0-.33 1.82V12a1.65 1.65 0 0 0 1.51 1H21a2 2 0 0 1 2 2 2 2 0 0 1-2 2h-.09a1.65 1.65 0 0 0-1.51 1z" />
  </symbol>
  <symbol id="icon-play" viewBox="0 0 24 24" fill="none" stroke="currentColor" stroke-width="2" stroke-linecap="round" stroke-linejoin="round"><polygon points="6 4 20 12 6 20 6 4"/></symbol>
  <symbol id="icon-pause" viewBox="0 0 24 24" fill="none" stroke="currentColor" stroke-width="2" stroke-linecap="round" stroke-linejoin="round"><rect x="6" y="4" width="4" height="16"/><rect x="14" y="4" width="4" height="16"/></symbol>
  <symbol id="icon-volume" viewBox="0 0 24 24" fill="none" stroke="currentColor" stroke-width="2" stroke-linecap="round" stroke-linejoin="round"><polygon points="11 5 6 9 2 9 2 15 6 15 11 19 11 5"/><path d="M15 9a4 4 0 0 1 0 6"/></symbol>
  <symbol id="icon-muted" viewBox="0 0 24 24" fill="none" stroke="currentColor" stroke-width="2" stroke-linecap="round" stroke-linejoin="round"><polygon points="11 5 6 9 2 9 2 15 6 15 11 19 11 5"/><line x1="17" y1="9" x2="23" y2="15"/><line x1="23" y1="9" x2="17" y2="15"/></symbol>
  <symbol id="icon-cc" viewBox="0 0 24 24" fill="none" stroke="currentColor" stroke-width="2" stroke-linecap="round" stroke-linejoin="round"><rect x="2" y="6" width="20" height="12" rx="2" ry="2"/><path d="M10 14a2 2 0 0 1-2 0 2 2 0 0 1 0-4 2 2 0 0 1 2 0"/><path d="M18 14a2 2 0 0 1-2 0 2 2 0 0 1 0-4 2 2 0 0 1 2 0"/></symbol>
  <symbol id="icon-pip" viewBox="0 0 24 24" fill="none" stroke="currentColor" stroke-width="2" stroke-linecap="round" stroke-linejoin="round"><rect x="2" y="4" width="20" height="16" rx="2" ry="2"/><rect x="13" y="9" width="7" height="5"/></symbol>
  <symbol id="icon-full" viewBox="0 0 24 24" fill="none" stroke="currentColor" stroke-width="2" stroke-linecap="round" stroke-linejoin="round"><path d="M9 3H5a2 2 0 0 0-2 2v4"/><path d="M15 3h4a2 2 0 0 1 2 2v4"/><path d="M9 21H5a2 2 0 0 1-2-2v-4"/><path d="M15 21h4a2 2 0 0 0 2-2v-4"/></symbol>
  <symbol id="icon-thumb" viewBox="0 0 24 24" fill="none" stroke="currentColor" stroke-width="2" stroke-linecap="round" stroke-linejoin="round"><path d="M14 10V4a2 2 0 0 0-2-2l-4 8v12h10.28a2 2 0 0 0 2-1.7l1.38-9a2 2 0 0 0-2-2H14z"/><path d="M7 22H4a2 2 0 0 1-2-2v-8a2 2 0 0 1 2-2h3"/></symbol>
  <symbol id="icon-marker" viewBox="0 0 24 24" fill="none" stroke="currentColor" stroke-width="2" stroke-linecap="round" stroke-linejoin="round"><path d="M12 21s-6-5.686-6-11A6 6 0 0 1 18 10c0 5.314-6 11-6 11z"/><circle cx="12" cy="10" r="2"/></symbol>
</svg>
